# xmcd
#
# Track frame offsets:
#	150
#	11619
#	22081
#	35140
#	63464
#	80688
#	106599
#	117406
#	134956
#	160597
#	174424
#	215188
#	260674
#	276562
#	293806
#	318832
#
# Disc length: 4463 seconds
#
# Revision: 1
# Processed by: cddbd v1.5.1PL0 Copyright (c) Steve Scherf et al.
# Submitted via: audiograbber 1.83.01
#
DISCID=f7116d10
DTITLE=Neil Young - Decade 1CD
DYEAR=1900
DGENRE=
TTITLE0=Down to the wire
TTITLE1=Burned
TTITLE2=Mr. Soul
TTITLE3=Broken Arrow
TTITLE4=Expecting to fly
TTITLE5=Sugar mountain
TTITLE6=I am a child
TTITLE7=Loner
TTITLE8=Old laughing lady
TTITLE9=Cinnamon girl
TTITLE10=Down by the river
TTITLE11=Cowgirl in the sand
TTITLE12=I believe in you
TTITLE13=After the goldrush
TTITLE14=Southern man
TTITLE15=Helpless
EXTD=
EXTT0=
EXTT1=
EXTT2=
EXTT3=
EXTT4=
EXTT5=
EXTT6=
EXTT7=
EXTT8=
EXTT9=
EXTT10=
EXTT11=
EXTT12=
EXTT13=
EXTT14=
EXTT15=
PLAYORDER=
